<?xml version="1.0" standalone="no"?>
<!DOCTYPE svg PUBLIC "-//W3C//DTD SVG 20010904//EN"
 "http://www.w3.org/TR/2001/REC-SVG-20010904/DTD/svg10.dtd">
<svg version="1.0" xmlns="http://www.w3.org/2000/svg"
 width="758.000000pt" height="758.000000pt" viewBox="0 0 758.000000 758.000000"
 preserveAspectRatio="xMidYMid meet">

<g transform="translate(0.000000,758.000000) scale(0.100000,-0.100000)"
fill="#000000" stroke="none">
<path d="M3500 7569 c-757 -61 -1462 -338 -2077 -819 -139 -109 -484 -454
-593 -593 -187 -240 -324 -459 -455 -729 -499 -1034 -499 -2242 0 -3276 201
-416 407 -705 740 -1037 332 -333 621 -539 1037 -740 1034 -499 2242 -499
3276 0 416 201 705 407 1037 740 333 332 539 621 740 1037 499 1034 499 2242
0 3276 -201 416 -407 705 -740 1037 -332 333 -621 539 -1037 740 -595 287
-1276 416 -1928 364z m830 -928 c58 -31 161 -130 206 -198 20 -30 46 -86 59
-126 61 -187 286 -878 301 -927 9 -30 43 -134 74 -230 32 -96 94 -290 140
-430 45 -140 169 -520 276 -845 220 -668 459 -1400 539 -1645 29 -91 82 -253
117 -360 55 -171 63 -204 62 -270 0 -56 -5 -85 -21 -115 -30 -57 -97 -118
-173 -156 -63 -32 -69 -34 -207 -37 -134 -4 -145 -3 -195 21 -64 30 -122 85
-152 146 -23 45 -170 483 -476 1421 -84 256 -289 877 -456 1380 -166 503 -361
1093 -433 1310 -122 372 -130 393 -141 365 -7 -16 -32 -93 -57 -170 -24 -77
-142 -437 -262 -800 -262 -791 -402 -1218 -546 -1660 -59 -181 -151 -465 -205
-630 -414 -1263 -395 -1207 -462 -1290 -17 -20 -49 -48 -72 -63 -40 -27 -44
-27 -206 -27 l-165 0 -63 33 c-127 66 -202 164 -202 265 0 32 26 127 81 300
149 460 528 1614 824 2502 111 336 239 725 285 865 237 735 374 1139 396 1173
36 55 110 123 160 148 45 21 205 54 341 68 43 5 193 8 333 7 248 -1 256 -2
300 -25z m-313 -3222 c174 -66 300 -217 338 -408 16 -75 16 -87 1 -163 -24
-120 -66 -200 -150 -284 -83 -83 -173 -131 -274 -145 -218 -32 -423 65 -529
251 -47 84 -63 150 -63 267 0 85 4 114 25 169 66 175 227 310 400 334 82 12
187 3 252 -21z"/>
</g>
</svg>
